<?xml version="1.0" encoding="UTF-8"?>
<svg id="Layer_1" xmlns="http://www.w3.org/2000/svg" viewBox="0 0 200.23 150.11">
  <defs>
    <style>
      .cls-1 {
        fill: #00cb75;
      }
    </style>
  </defs>
  <path class="cls-1" d="M100.1,101.02c-6.43-.08-12.14-2.15-17.1-6.26-1.64-1.35-2.11-3.16-1.85-5.19.83-6.41,5.78-10.78,12.26-10.81,4.49-.02,8.97-.02,13.46,0,6.76.03,12.03,5.04,12.27,11.62.07,1.86-.64,3.36-2.09,4.54-4.94,4.01-10.59,6.03-16.94,6.1Z"/>
  <path class="cls-1" d="M88.19,61.03c-.04-6.55,5.3-11.9,11.9-11.94,6.56-.04,11.89,5.25,11.98,11.87.08,6.52-5.36,11.99-11.94,11.99-6.55,0-11.9-5.34-11.94-11.92Z"/>
</svg>