<?xml version="1.0" encoding="UTF-8"?>
<svg id="Layer_1" xmlns="http://www.w3.org/2000/svg" viewBox="0 0 200.23 150.11">
  <defs>
    <style>
      .cls-1 {
        fill: #00cb75;
      }
    </style>
  </defs>
  <path class="cls-1" d="M126.31,67.35c-.08.32-.15.65-.24.97-.43,1.52-1.29,2.74-2.55,3.69-.14.11-.28.32-.28.49-.01,6.97-.01,13.93-.01,20.9,0,.06.01.12.03.25.27,0,.54-.01.81,0,.41.02.65.26.7.66.05.38-.24.7-.65.76-.14.02-.29.01-.43.01-14.69,0-29.38,0-44.06,0-.14,0-.29.01-.43-.01-.4-.07-.63-.31-.64-.72,0-.38.29-.68.71-.7.25-.01.51,0,.83,0v-.54c0-6.81,0-13.61,0-20.42,0-.34-.09-.54-.37-.75-1.69-1.27-2.6-2.98-2.7-5.09-.01-.27.06-.58.19-.82,1.84-3.25,3.7-6.49,5.55-9.74.48-.84,1.2-1.26,2.17-1.26,11.16,0,22.31,0,33.47,0,1.01,0,1.72.48,2.21,1.35,1.8,3.18,3.62,6.35,5.44,9.53.08.13.18.26.27.38v1.06ZM114.45,67.28c.12,2.6,2.75,4.69,5.58,4.52,2.41-.15,4.85-2.47,4.7-4.52-.68,0-1.37,0-2.06,0-.58,0-.89-.26-.89-.72,0-.45.32-.72.89-.72.52,0,1.05,0,1.63,0-.07-.15-.1-.23-.14-.31-1.62-2.84-3.25-5.68-4.87-8.52-.23-.4-.56-.53-1-.53-11.09,0-22.18,0-33.28,0-.49,0-.81.18-1.05.6-1.59,2.8-3.19,5.6-4.79,8.4-.06.1-.09.21-.16.37.64,0,1.22-.02,1.8,0,.45.02.73.35.71.75-.02.39-.3.65-.73.68-.18.01-.35,0-.53,0-.57,0-1.14,0-1.71,0,.1,2.02,2.18,4.7,5.44,4.53,2.5-.14,5.01-2.45,4.83-4.53-.23,0-.47,0-.71,0-1.4,0-2.79,0-4.19,0-.43,0-.72-.29-.74-.67-.02-.39.27-.71.71-.76.11-.01.22,0,.34,0,11.62,0,23.24,0,34.87,0,.16,0,.32,0,.48.04.38.09.59.35.56.73-.03.37-.25.62-.64.66-.21.02-.42.01-.63.01-1.46,0-2.92,0-4.41,0ZM81.55,93.61h27.11v-.59c0-5.62,0-11.23,0-16.85,0-.89.18-1.06,1.08-1.06,2.84,0,5.68,0,8.52,0,.93,0,1.11.19,1.11,1.14,0,5.6,0,11.2,0,16.8v.55h2.4v-20.65c-3.51.87-6.22-.21-8.15-3.3-1.34,2.26-3.28,3.58-5.95,3.59-2.69,0-4.65-1.3-6.01-3.61-1.37,2.31-3.33,3.61-6,3.61-2.67,0-4.62-1.32-5.96-3.59-1.93,3.08-4.63,4.16-8.14,3.3v20.66ZM110.13,89.73h7.75v-13.15h-7.75v13.15ZM102.46,67.3c.3,2.69,2.75,4.66,5.55,4.5,2.44-.14,4.78-2.34,4.77-4.5h-10.32ZM100.82,67.31h-10.32c.16,2.44,2.58,4.52,5.2,4.5,2.61-.02,5.02-2.14,5.12-4.5ZM117.89,93.61v-2.36h-7.74v2.36h7.74Z"/>
  <path class="cls-1" d="M95.09,75.11c3.34,0,6.68,0,10.01,0,.96,0,1.13.17,1.13,1.11,0,4.64,0,9.28,0,13.91,0,.88-.21,1.09-1.07,1.09-6.72,0-13.45,0-20.17,0-.84,0-1.06-.22-1.06-1.05,0-4.69,0-9.37,0-14.06,0-.78.22-1.01,1-1.01,3.39,0,6.77,0,10.16,0ZM85.41,76.55v13.19h19.39v-.56c0-4.01,0-8.02.01-12.03,0-.49-.13-.61-.61-.61-6.07.02-12.13.01-18.2.01h-.59Z"/>
</svg>