<?xml version="1.0" encoding="UTF-8"?>
<svg id="Layer_1" xmlns="http://www.w3.org/2000/svg" viewBox="0 0 200.23 150.11">
  <defs>
    <style>
      .cls-1 {
        fill: #00cb75;
      }
    </style>
  </defs>
  <path class="cls-1" d="M101.22,49.75c.9.18,1.82.29,2.69.56,5.15,1.6,8.13,5.17,9.26,10.37.77,3.57.21,6.99-1.15,10.33-1.48,3.65-3.44,7.03-5.71,10.23-1.55,2.18-3.22,4.29-4.88,6.4-.8,1.01-1.77.99-2.6,0-3.77-4.51-7.16-9.27-9.7-14.59-1.09-2.28-2.04-4.63-2.26-7.16-.46-5.41.87-10.17,5.38-13.62,1.84-1.41,3.97-2.16,6.28-2.42.11-.01.21-.06.32-.09.79,0,1.58,0,2.37,0ZM100.15,67.57c2.47-.01,4.44-2,4.44-4.46,0-2.45-2.02-4.45-4.47-4.44-2.46.01-4.44,2.02-4.44,4.48,0,2.46,2.01,4.44,4.47,4.43Z"/>
  <path class="cls-1" d="M74.83,98.47c.26-.58.51-1.17.8-1.74.09-.19.25-.39.44-.49,4.14-2.13,8.28-4.24,12.42-6.36.25-.13.41-.16.64.07,3.2,3.22,6.42,6.42,9.64,9.63.08.08.14.17.23.27-.46.29-.88.49-1.43.49-6.91-.02-13.82-.02-20.74,0-.92,0-1.6-.25-1.99-1.1,0-.26,0-.53,0-.79Z"/>
  <path class="cls-1" d="M91.65,88.27c.91-.47,1.77-.91,2.65-1.36.79.97,1.56,1.93,2.36,2.86,1.9,2.21,5.04,2.21,6.94,0,.75-.88,1.48-1.77,2.18-2.68,2.5-3.23,4.81-6.59,6.78-10.17.08-.15.3-.31.47-.32.67-.03,1.35-.02,2.02,0,.6.02,1.05.3,1.29.85,1.58,3.65,3.15,7.3,4.74,10.99-1.32.69-2.62,1.36-3.91,2.03-4.98,2.58-9.95,5.16-14.93,7.74-.27.14-.46.21-.72-.06-3.21-3.22-6.43-6.43-9.64-9.64-.06-.06-.11-.12-.22-.25Z"/>
  <path class="cls-1" d="M92.51,84.5c-4.96,2.53-9.86,5.03-14.87,7.6.09-.24.13-.39.19-.52,1.98-4.62,3.98-9.23,5.95-13.86.32-.76.84-1.14,1.67-1.12.67.02,1.47-.2,1.99.09.49.27.69,1.07,1.04,1.62,1.23,1.91,2.46,3.81,3.7,5.71.1.15.21.29.34.49Z"/>
  <path class="cls-1" d="M122.23,91.19c.08.16.15.29.21.42.91,2.13,1.83,4.26,2.74,6.39.59,1.38-.05,2.35-1.57,2.35-6.12,0-12.24,0-18.37,0h-.44s-.03-.06-.04-.1c5.81-3.01,11.63-6.03,17.47-9.06Z"/>
  <path class="cls-1" d="M100.11,64.6c-.82,0-1.47-.67-1.46-1.48,0-.8.68-1.48,1.48-1.48.82,0,1.5.7,1.49,1.52-.02.81-.68,1.45-1.5,1.44Z"/>
</svg>