<?xml version="1.0" encoding="UTF-8"?>
<svg id="Layer_1" xmlns="http://www.w3.org/2000/svg" viewBox="0 0 200.23 150.11">
  <defs>
    <style>
      .cls-1 {
        fill: none;
        stroke: #0d2a47;
        stroke-miterlimit: 10;
      }

      .cls-2 {
        fill: #0d2a47;
      }
    </style>
  </defs>
  <path class="cls-2" d="M95.13,59.61c2.53,0,5.07.05,7.6-.01,2.74-.06,4.48,2,4.44,4.42-.09,4.81-.09,9.63,0,14.44.05,2.71-2.04,4.47-4.44,4.44-4.28-.06-8.56-.02-12.84-.01-.87,0-1.74.08-2.62.08-2.4-.02-3.75-1.23-4.05-3.62-.08-.65-.12-1.32-.12-1.97,0-4.51,0-9.03.01-13.54,0-2.47,1.68-4.18,4.15-4.2,2.62-.02,5.24,0,7.86,0ZM95.16,62.22c-1.13,0-2.26,0-3.39,0-1.47,0-2.94-.02-4.41-.02-1.28,0-1.68.36-1.75,1.64,0,.11,0,.21,0,.32,0,4.6.02,9.2.03,13.8,0,2.08.23,2.31,2.3,2.31,3.2,0,6.39,0,9.59,0,1.77,0,3.54,0,5.3,0,.93,0,1.33-.36,1.44-1.27.03-.25.02-.51.02-.77,0-3.24,0-6.48,0-9.71,0-1.55.01-3.11,0-4.66-.02-1.27-.41-1.63-1.65-1.64-2.49,0-4.98,0-7.48,0Z"/>
  <path class="cls-1" d="M83.02,95.77c0-1.21,0-2.43,0-3.64,0-2.29,1.69-4.1,3.98-4.15,2.53-.05,5.07-.05,7.6,0,2.53.05,4.21,1.82,4.21,4.33,0,2.24,0,4.47,0,6.71,0,2.76-1.64,4.38-4.42,4.4-1.79.01-3.58.15-5.36.1-1.2-.04-2.41-.24-3.57-.53-1.57-.39-2.27-1.61-2.36-3.13-.08-1.36-.02-2.72-.02-4.09-.02,0-.04,0-.07,0ZM90.72,90.81s0-.03,0-.05c-1.21,0-2.43,0-3.64,0-.79,0-1.31.42-1.31,1.15-.01,2.45-.02,4.9.02,7.34.02,1.06.54,1.52,1.63,1.53,2.38.01,4.77,0,7.15,0,1.06,0,1.53-.47,1.53-1.52,0-2.24.01-4.47,0-6.71,0-1.28-.45-1.73-1.74-1.75-1.21-.02-2.43,0-3.64,0Z"/>
</svg>