<?xml version="1.0" encoding="UTF-8"?>
<svg id="Layer_1" xmlns="http://www.w3.org/2000/svg" viewBox="0 0 200.23 150.11">
  <defs>
    <style>
      .cls-1 {
        fill: none;
        stroke: #0d2a47;
        stroke-miterlimit: 10;
      }

      .cls-2 {
        fill: #0d2a47;
      }
    </style>
  </defs>
  <path class="cls-1" d="M87.77,69.31h40.69v.46c0,6.77,0,13.53,0,20.3,0,2.97-2.03,5-5,5-10.23,0-20.45,0-30.68,0-2.97,0-5.01-2.03-5.01-5,0-6.77,0-13.53,0-20.3v-.46ZM103.73,82.89c-.65.15-1.12.46-1.43.98-.81,1.36.17,3.05,1.8,3.06,3.09.01,6.19,0,9.28,0,.08,0,.17,0,.25,0,.36-.07.59-.29.59-.67,0-.37-.22-.6-.58-.67-.14-.03-.28-.01-.42-.01-2.94,0-5.88,0-8.81,0-.13,0-.26,0-.38,0-.38-.04-.63-.31-.64-.67,0-.35.25-.64.63-.68.13-.01.25,0,.38,0,2.94,0,5.88,0,8.81,0,.73,0,.89-.12,1.11-.83.61-2.04,1.22-4.08,1.84-6.12.26-.86,0-1.19-.89-1.19-4.12,0-8.25,0-12.37,0-.29,0-.44-.08-.55-.36-.31-.83-.66-1.65-.98-2.48-.15-.4-.42-.57-.84-.56-1.03.01-2.06,0-3.09,0-.51,0-.81.25-.82.66-.01.42.3.69.83.69.75,0,1.5.03,2.25,0,.4-.02.59.1.73.48.45,1.2.94,2.39,1.42,3.58.63,1.58,1.26,3.16,1.91,4.79ZM106.76,89.66c0-1.13-.92-2.05-2.04-2.04-1.11,0-2.02.92-2.02,2.02,0,1.12.92,2.04,2.04,2.04,1.1,0,2.02-.92,2.02-2.02ZM114.9,89.63c0-1.13-.94-2.04-2.07-2.02-1.1.02-2,.94-2,2.04,0,1.12.94,2.03,2.06,2.02,1.1-.01,2.01-.94,2-2.04Z"/>
  <path class="cls-1" d="M87.85,65.2c0-1.86-.13-3.71.03-5.53.19-2.12,2.19-3.82,4.31-3.93.1,0,.19,0,.32,0,0,.42.02.81-.01,1.2-.01.13-.14.26-.25.36-1.08,1.02-1.4,2.55-.8,3.89.59,1.32,1.93,2.11,3.39,2,1.41-.11,2.61-1.12,3-2.55.02-.09.05-.17.08-.3.82,2.04,1.85,2.88,3.47,2.86,1.57-.02,2.63-.92,3.33-2.85.53,1.89,1.71,2.93,3.68,2.83,1.51-.07,2.58-1.1,3.09-2.86.56,1.93,1.75,2.99,3.76,2.85,1.47-.1,2.35-.97,3.05-2.83.06.2.11.35.15.5.42,1.3,1.59,2.25,2.93,2.35,1.41.11,2.72-.63,3.34-1.88.61-1.24.45-2.76-.52-3.74-.41-.41-.53-.81-.48-1.34.02-.15,0-.3,0-.5,1.61.05,2.86.68,3.81,1.93.55.73.89,1.56.91,2.46.04,1.68.01,3.36.01,5.07h-40.6Z"/>
  <path class="cls-2" d="M128.44,66.61v1.31h-40.64v-1.31h40.64Z"/>
  <path class="cls-2" d="M93.88,55.65c0-.62,0-1.24,0-1.86,0-.47.28-.76.67-.76.4,0,.68.29.68.76,0,1.24,0,2.49,0,3.73,0,.25.04.4.29.53.85.45,1.24,1.38,1,2.29-.24.9-1.03,1.51-1.96,1.51-.93,0-1.72-.61-1.96-1.51-.24-.91.14-1.85.99-2.3.25-.13.3-.28.29-.52-.01-.62,0-1.24,0-1.86ZM94.55,60.48c.36,0,.67-.29.68-.66.01-.38-.31-.7-.69-.69-.36,0-.66.32-.66.68,0,.37.3.67.67.67Z"/>
  <path class="cls-2" d="M102.01,55.7c0,.62,0,1.24,0,1.86,0,.22.05.34.27.45.87.46,1.26,1.37,1.03,2.28-.24.92-1.03,1.54-1.98,1.54-.93,0-1.71-.62-1.95-1.52-.24-.91.15-1.84,1.01-2.29.23-.12.28-.26.28-.49,0-1.26-.02-2.51.01-3.77,0-.23.2-.54.4-.66.16-.1.5-.03.68.1.15.1.23.38.24.59.03.63.01,1.27.01,1.91ZM102.01,59.8c0-.36-.3-.67-.66-.68-.36,0-.67.29-.69.65-.01.38.31.7.68.7.36,0,.67-.31.67-.67Z"/>
  <path class="cls-2" d="M108.8,55.68c0,.64-.01,1.27.01,1.91,0,.14.12.33.25.4.87.51,1.27,1.4,1.03,2.33-.24.9-1.03,1.51-1.96,1.51-.94,0-1.74-.62-1.97-1.55-.23-.91.17-1.82,1.04-2.28.22-.11.26-.25.25-.46,0-1.24,0-2.49,0-3.73,0-.47.22-.75.59-.8.41-.06.75.25.76.71.01.65,0,1.3,0,1.95ZM108.79,59.8c0-.36-.3-.67-.66-.68-.36,0-.67.29-.69.65-.01.38.31.7.68.7.36,0,.67-.31.67-.67Z"/>
  <path class="cls-2" d="M114.22,55.69c0-.64,0-1.27,0-1.91,0-.47.27-.76.67-.76.4,0,.68.29.68.75,0,1.26,0,2.51,0,3.77,0,.24.06.37.29.48.85.45,1.24,1.38,1,2.29-.24.9-1.03,1.51-1.96,1.51-.95,0-1.74-.62-1.97-1.55-.23-.89.17-1.82,1-2.26.24-.13.3-.27.3-.52-.02-.61,0-1.21,0-1.82ZM114.9,59.12c-.36,0-.67.3-.68.66,0,.36.29.68.65.69.38.01.7-.3.7-.68,0-.36-.31-.67-.67-.67Z"/>
  <path class="cls-2" d="M122.36,55.71c0,.59.01,1.19,0,1.78,0,.26.06.42.31.55.91.49,1.28,1.56.9,2.51-.36.92-1.35,1.45-2.29,1.25-1-.22-1.7-1.11-1.62-2.13.06-.74.42-1.31,1.08-1.66.21-.11.27-.23.27-.45-.01-1.23,0-2.46,0-3.69,0-.54.24-.85.66-.86.43-.01.69.31.69.87,0,.61,0,1.21,0,1.82ZM122.36,59.81c0-.36-.29-.67-.66-.68-.36-.01-.68.28-.7.65-.02.38.3.71.68.71.36,0,.67-.3.67-.67Z"/>
  <path class="cls-1" d="M96.59,55.75h2.71c0,.41,0,.8,0,1.19,0,.1-.07.21-.15.28-.62.54-1,1.21-1.17,2.13-.07-.18-.1-.25-.12-.33-.17-.63-.45-1.2-.94-1.63-.26-.23-.36-.47-.33-.8.03-.26,0-.53,0-.84Z"/>
  <path class="cls-1" d="M103.38,55.75h2.7c0,.42,0,.83,0,1.25,0,.06-.05.13-.1.18-.65.54-1.05,1.24-1.22,2.14-.17-.44-.3-.8-.47-1.14-.1-.2-.21-.43-.38-.55-.72-.48-.53-1.18-.53-1.87Z"/>
  <path class="cls-1" d="M111.51,59.25c-.22-.84-.61-1.55-1.26-2.1-.08-.07-.08-.26-.09-.39-.01-.32,0-.65,0-1h2.71c0,.4,0,.8,0,1.21,0,.06-.03.15-.08.18-.66.55-1.06,1.25-1.27,2.1Z"/>
  <path class="cls-1" d="M116.94,55.74h2.7c0,.42,0,.84,0,1.26,0,.06-.05.14-.09.18-.65.54-1.04,1.24-1.23,2.17-.13-.36-.2-.64-.32-.9-.14-.29-.32-.56-.51-.82-.16-.21-.47-.37-.51-.59-.08-.4-.02-.84-.02-1.29Z"/>
  <path class="cls-2" d="M103.05,77.45h11.61c-.06.2-.11.38-.17.56-.44,1.49-.9,2.97-1.33,4.46-.08.29-.19.4-.51.4-2.37-.02-4.75,0-7.12,0-.21,0-.36,0-.46-.25-.65-1.65-1.31-3.3-1.97-4.95-.02-.06-.04-.13-.06-.21Z"/>
  <path class="cls-2" d="M104.71,88.97c.37-.01.68.29.7.65.01.37-.29.68-.65.7-.37.01-.68-.29-.69-.65-.01-.37.28-.68.65-.7Z"/>
  <path class="cls-2" d="M113.54,89.63c0,.37-.29.68-.66.69-.37,0-.68-.29-.69-.66,0-.37.29-.68.66-.69.37,0,.68.29.69.66Z"/>
</svg>