<?xml version="1.0" encoding="UTF-8"?>
<svg id="Layer_1" xmlns="http://www.w3.org/2000/svg" viewBox="0 0 200.23 150.11">
  <defs>
    <style>
      .cls-1 {
        fill: none;
        stroke: #0d2a47;
        stroke-miterlimit: 10;
      }

      .cls-2 {
        fill: #0d2a47;
      }
    </style>
  </defs>
  <path class="cls-1" d="M116.94,84.11c.02,1.48.2,2.89.73,4.23,1.63,4.14,4.62,6.69,8.98,7.58.34.07.51.2.6.54.23.91.64,1.79.74,2.7.26,2.45-1.58,4.41-4.05,4.41-4.28.01-8.55,0-12.83,0-6.16,0-12.31,0-18.47,0-2.24,0-3.92-1.5-4.11-3.71-.05-.52.04-1.08.19-1.58,1.07-3.44,2.16-6.87,3.28-10.29,1.08-3.31,4.57-5.02,7.84-3.83,5.54,2.01,11.08,2.05,16.63.07.14-.05.28-.08.46-.14Z"/>
  <path class="cls-1" d="M97.91,71.43c.01-5.74,4.65-10.35,10.38-10.34,5.75,0,10.39,4.67,10.37,10.42-.02,5.71-4.69,10.34-10.42,10.32-5.72-.02-10.34-4.67-10.33-10.4Z"/>
  <path class="cls-2" d="M138.56,84.3c.02,5.37-4.36,9.79-9.73,9.81-5.43.02-9.84-4.33-9.86-9.72-.03-5.44,4.34-9.84,9.78-9.85,5.41-.01,9.79,4.34,9.81,9.77ZM125.59,84.35c-.36.35-.69.65-1.01.97-.34.33-.67.66-.99,1-.9.96-.83,2.41.15,3.27.9.79,2.2.74,3.09-.13.65-.63,1.27-1.28,1.95-1.96.66.67,1.28,1.3,1.9,1.93.5.5,1.1.76,1.81.7.94-.08,1.61-.57,1.94-1.45.33-.87.17-1.7-.49-2.37-.64-.66-1.32-1.28-2.01-1.93.71-.72,1.36-1.35,1.98-2,.85-.89.91-2.15.16-3.06-.84-1.01-2.33-1.11-3.3-.18-.67.64-1.29,1.34-1.98,2.07-.7-.72-1.28-1.35-1.88-1.95-1-.99-2.39-1.02-3.32-.08-.9.91-.85,2.3.12,3.28.6.61,1.21,1.21,1.88,1.89Z"/>
</svg>