<?xml version="1.0" encoding="UTF-8"?>
<svg id="Layer_1" xmlns="http://www.w3.org/2000/svg" viewBox="0 0 200.23 150.11">
  <defs>
    <style>
      .cls-1 {
        fill: #00cb75;
      }
    </style>
  </defs>
  <path class="cls-1" d="M106.94,98.47c0-.43,0-.77,0-1.1,0-3.51.02-7.01,0-10.52-.02-3.64-2.15-6.33-5.52-7.03-3.82-.8-7.79,1.98-8.02,5.87-.21,3.49-.09,7.01-.11,10.52,0,.71,0,1.43,0,2.27-.36,0-.64,0-.91,0-2.93,0-5.86,0-8.8,0-2.53,0-3.97-1.44-3.97-3.95,0-5.66,0-11.33,0-16.99,0-.34,0-.67,0-1.11-.62,0-1.16.01-1.7,0-1.68-.05-2.94-.93-3.46-2.38-.52-1.47-.1-2.92,1.2-4.01,6.63-5.56,13.25-11.13,19.89-16.67,2.69-2.24,6.35-2.31,9.04-.08,6.73,5.58,13.41,11.2,20.09,16.83,1.25,1.05,1.63,2.53,1.08,3.97-.58,1.5-1.72,2.26-3.3,2.34-.57.03-1.14,0-1.83,0,0,.4,0,.73,0,1.07,0,5.63,0,11.27,0,16.9,0,2.69-1.4,4.08-4.1,4.08-2.85,0-5.69,0-8.54,0h-1.04Z"/>
</svg>