<?xml version="1.0" encoding="UTF-8"?>
<svg id="Layer_1" xmlns="http://www.w3.org/2000/svg" viewBox="0 0 200.23 150.11">
  <defs>
    <style>
      .cls-1 {
        fill: none;
        stroke: #0d2a47;
        stroke-miterlimit: 10;
        stroke-width: 2px;
      }
    </style>
  </defs>
  <path class="cls-1" d="M124.44,87.96c-.29-.4-.71-.7-1.05-1.06-.29-.31-.5-.66-.4-1.13.25-1.19.13-1.35-1.08-1.57-.05,0-.09-.01-.14-.02-.77-.12-.92-.29-.79-1.05.12-.69.34-1.35.51-2.03.14-.56.3-1.16-.01-1.68-.24-.4-.49-.78-.77-1.14-.36.41-.72.83-1.09,1.24-1.19,1.36-2.18,2.85-2.9,4.52-.03.08-.07.15-.1.22-.12.27-.31.45-.63.45-.32,0-.5-.19-.62-.46-.61-1.42-1.36-2.76-2.35-3.94-1.02-1.22-2.08-2.41-3.12-3.61-1.07-1.23-1.98-2.56-2.47-4.14-1.54-5,1.33-10.49,6.51-11.75-.02-.11-.05-.23-.1-.35-.24-.56-.08-1.02.38-1.41.18-.16.32-.38.56-.67-.65,0-1.15,0-1.64,0-.34,0-.68.05-1.02.05-1.36-.03-2.01-.6-2.13-1.94-.05-.59-.28-1.05-.67-1.5-.23-.27-.44-.63-.48-.97-.1-.77-.53-1.3-1.04-1.83-.45-.46-.94-.56-1.52-.29-.42.19-.85.37-1.28.56-.06-.1-.12-.16-.15-.23-.42-.92-1.11-1.31-2.13-1.22-.94.09-1.86-.07-2.74-.41-1.38-.54-2.35.2-2.87,1.05-.11.19-.23.37-.32.57-.5,1.1-1.34,1.79-2.5,2.15-.47.14-.94.34-1.36.59-.9.53-1.23,1.52-.89,2.5.09.25.18.5.28.74.34.84.33,1.63-.28,2.36-.49.58-.62,1.28-.63,2-.01.67-.02,1.34.03,2.01.02.34-.06.53-.35.71-1.75,1.12-3.5,2.27-5.24,3.4-1.86,1.21-3.72,2.43-5.62,3.66.04.15.07.25.1.35.43,1.38.98,2.72,1.05,4.19,0,.18.14.37.24.53.22.32.49.6.69.93.44.73,1.44,1.24,2.26,1.01.49-.14.93-.09,1.36.1,1.04.48,2.1.94,3.1,1.51,4.98,2.86,9.68,6.15,14.24,9.65,1.19.92,2.32,1.93,3.43,2.94.39.36.79.6,1.31.61.4,0,.81,0,1.21-.05,1.13-.16,2.22-.12,3.3.29.47.18.99.28,1.49.37.77.15,1.43-.05,1.88-.73.42-.64.8-1.29,1.19-1.95.41-.7.77-1.42,1.22-2.09.63-.95,1.56-1.32,2.68-1.1.79.15,1.56.43,2.34.6.43.1.89.11,1.34.13.29.01.47-.18.37-.45-.15-.43-.32-.87-.58-1.23Z"/>
  <path class="cls-1" d="M124.17,69.63c-.02,2.31-.91,4.26-2.38,5.98-.81.95-1.65,1.89-2.48,2.83-1.07,1.22-1.95,2.56-2.6,4.05-.03.07-.06.13-.09.2-.11.24-.28.4-.56.4-.28,0-.45-.17-.55-.41-.55-1.27-1.22-2.47-2.11-3.53-.92-1.09-1.86-2.16-2.8-3.24-.96-1.1-1.78-2.29-2.21-3.71-1.4-4.55,1.26-9.55,6.02-10.59,4.48-.97,8.87,2.07,9.61,6.62.07.46.1.93.15,1.39ZM116.05,65.26c-2.37.02-4.25,1.92-4.24,4.29.02,2.34,1.93,4.23,4.27,4.22,2.36,0,4.25-1.93,4.24-4.3-.02-2.35-1.93-4.23-4.27-4.22Z"/>
  <circle class="cls-1" cx="116.07" cy="69.52" r="3.98"/>
</svg>