<?xml version="1.0" encoding="UTF-8"?>
<svg id="Layer_1" xmlns="http://www.w3.org/2000/svg" viewBox="0 0 200.23 150.11">
  <defs>
    <style>
      .cls-1 {
        fill: none;
        stroke: #0d2a47;
        stroke-miterlimit: 10;
      }

      .cls-2 {
        fill: #0d2a47;
      }
    </style>
  </defs>
  <path class="cls-2" d="M100.59,98.91c1.17-.25,2.15-.91,3.16-1.5,2.5-1.44,5-2.89,7.5-4.33,1.55-.89,2.33-2.24,2.33-4.02,0-8.87,0-17.73,0-26.6,0-2.69-1.95-4.63-4.63-4.63-6.58,0-13.16,0-19.74,0-2.69,0-4.63,1.93-4.65,4.62,0,1.78,0,3.56,0,5.34,0,.97.61,1.65,1.47,1.66.86,0,1.48-.68,1.48-1.65,0-1.78,0-3.56,0-5.34,0-1.06.6-1.68,1.66-1.68,5.66,0,11.31,0,16.97,0,.1,0,.2.01.4.03-.69.4-1.28.75-1.88,1.09-2.23,1.29-4.46,2.59-6.7,3.86-1.65.94-2.45,2.33-2.45,4.23.02,6.29,0,12.57,0,18.86v.56c-.17,0-.31.02-.45.02-1.93,0-3.85,0-5.78,0-1.18,0-1.78-.6-1.78-1.77,0-1.52,0-3.05,0-4.57,0-.95-.6-1.61-1.45-1.63-.87-.01-1.49.66-1.5,1.63,0,1.56-.01,3.13,0,4.69.02,2.57,1.83,4.49,4.4,4.57,2,.06,4.01.02,6.02.02.16,0,.32,0,.54,0,0,.19,0,.34,0,.49.02.76-.05,1.53.06,2.28.28,1.88,1.67,3.28,3.55,3.68.09.02.17.06.26.09h1.2Z"/>
  <path class="cls-1" d="M81.94,73.52c.49-.48.98-.95,1.46-1.43.66-.66.69-1.58.09-2.17-.6-.59-1.49-.57-2.15.08-1.34,1.33-2.67,2.66-4,4-.67.68-.66,1.52.01,2.2,1.33,1.34,2.66,2.67,4,4,.65.64,1.55.66,2.14.06.59-.6.56-1.5-.08-2.15-.46-.47-.92-.93-1.38-1.39-.02-.02-.03-.04-.1-.15h.49c3.34,0,6.68,0,10.03,0,.25,0,.51-.01.75-.09.69-.22,1.08-.91.96-1.65-.11-.68-.71-1.19-1.45-1.2-2.66,0-5.32,0-7.98,0-.92,0-1.84,0-2.75,0-.01-.03-.03-.07-.04-.1Z"/>
</svg>