<?xml version="1.0" encoding="UTF-8"?>
<svg id="Layer_1" xmlns="http://www.w3.org/2000/svg" viewBox="0 0 200.23 150.11">
  <defs>
    <style>
      .cls-1 {
        fill: #0d2a47;
      }

      .cls-2 {
        fill: #00cb75;
      }
    </style>
  </defs>
  <rect class="cls-2" x="76.6" y="35.81" width="78.5" height="78.5" rx="39.25" ry="39.25"/>
  <g>
    <path class="cls-1" d="M58.77,66.05h34.51c1.74,0,3.66-1.41,4.29-3.15h0c.63-1.74-.28-3.15-2.02-3.15h-34.51c-1.74,0-3.66,1.41-4.29,3.15h0c-.63,1.74.28,3.15,2.02,3.15Z"/>
    <path class="cls-1" d="M55.86,74.16h34.51c1.74,0,3.66-1.41,4.29-3.15h0c.63-1.74-.28-3.15-2.02-3.15h-34.51c-1.74,0-3.66,1.41-4.29,3.15h0c-.63,1.74.28,3.15,2.02,3.15Z"/>
    <path class="cls-1" d="M52.95,82.26h34.51c1.74,0,3.66-1.41,4.29-3.15h0c.63-1.74-.28-3.15-2.02-3.15h-34.51c-1.74,0-3.66,1.41-4.29,3.15h0c-.63,1.74.28,3.15,2.02,3.15Z"/>
    <path class="cls-1" d="M50.31,90.03h22.36c1.74,0,3.66-1.41,4.29-3.15h0c.63-1.74-.28-3.15-2.02-3.15h-22.36c-1.74,0-3.66,1.41-4.29,3.15h0c-.63,1.74.28,3.15,2.02,3.15Z"/>
    <path class="cls-1" d="M47.48,98.5h23.79c1.84,0,3.86-1.49,4.52-3.32l.13-.36c.66-1.84-.29-3.32-2.13-3.32h-23.79c-1.84,0-3.86,1.49-4.52,3.32l-.13.36c-.66,1.84.29,3.32,2.13,3.32Z"/>
    <path class="cls-1" d="M53.34,91.5h44.35c-2.85-3.94-3.79-8.62-2.81-14.06,1.05-5.84,3.97-10.8,8.77-14.87,4.8-4.07,10.12-6.1,15.96-6.1s10.46,2.02,13.85,6.05c3.39,4.03,4.56,8.97,3.51,14.82-.99,5.53-3.67,10.32-8.02,14.39-4.81,4.51-10.44,6.77-16.89,6.77h-59.98M129.91,77.37c.67-3.9-.11-7.21-2.34-9.92-2.23-2.71-5.3-4.07-9.2-4.07s-7.46,1.36-10.66,4.07c-3.2,2.71-5.17,6.02-5.9,9.92-.75,4-.03,7.35,2.17,10.06,2.2,2.71,5.3,4.07,9.3,4.07s7.57-1.36,10.79-4.09c3.22-2.73,5.17-6.07,5.85-10.04ZM123.66,50.14c-.17.92-.64,1.71-1.42,2.36-.78.65-1.64.98-2.56.98s-1.61-.33-2.15-1-.74-1.45-.58-2.33.63-1.72,1.4-2.38c.77-.67,1.62-1,2.54-1s1.66.33,2.2,1,.74,1.46.57,2.38Z"/>
  </g>
</svg>