<?xml version="1.0" encoding="UTF-8"?>
<svg id="Layer_1" xmlns="http://www.w3.org/2000/svg" viewBox="0 0 200.23 150.11">
  <defs>
    <style>
      .cls-1 {
        fill: none;
        stroke: #0d2a47;
        stroke-miterlimit: 10;
      }

      .cls-2 {
        fill: #0d2a47;
      }
    </style>
  </defs>
  <path class="cls-1" d="M92.22,80.66c.34-.81.2-1.49-.33-2.18h.56c3.25,0,6.51,0,9.76,0,.14,0,.31.05.4-.02.19-.13.43-.3.48-.5.09-.31-.14-.51-.45-.57-.15-.03-.3-.01-.45-.01-4.23,0-8.45,0-12.68,0-.32,0-.53-.09-.75-.32-1.19-1.21-2.4-2.42-3.61-3.61-.21-.21-.31-.37-.22-.7.21-.8-.17-1.59-.88-1.98-.71-.39-1.54-.3-2.14.29-.63.61-1.24,1.26-1.93,1.96-.03-.21-.05-.31-.05-.42,0-5.4,0-10.8,0-16.2,0-1.34.91-2.24,2.28-2.25,2.16-.01,4.32,0,6.48,0,5.49,0,10.98,0,16.47,0,1.27,0,2.1.58,2.37,1.64.06.23.07.48.07.72,0,10.37,0,20.74,0,31.12,0,1.45-.87,2.34-2.32,2.35-1.54.01-3.07,0-4.61,0-.1,0-.21-.02-.38-.03,0-.23,0-.45,0-.68,0-.41-.21-.62-.62-.62-.54,0-1.09,0-1.67,0v-1.09c.15,0,.3,0,.46,0,1.31,0,2.62,0,3.92,0,.5,0,.73-.18.73-.55,0-.37-.23-.55-.73-.55-1.46,0-2.92,0-4.38-.01-.21,0-.46-.11-.62-.25-.45-.41-.95-.65-1.56-.65-3.1,0-6.2,0-9.31,0-1.19,0-2.06.89-2.11,2.08-.01.32,0,.63,0,1.01-.51,0-.99,0-1.47,0-.74,0-.85.11-.86.84,0,.13-.01.27-.02.4-1.22.02-2.11-.8-2.13-1.97-.02-.71-.17-1.49.06-2.12.21-.56.86-.95,1.32-1.42,1.04-1.04,2.08-2.09,3.21-3.22.33.37.66.71.95,1.08.06.08.06.25.04.36-.19.91.13,1.7.87,2.11.73.4,1.57.26,2.21-.37.77-.76,1.54-1.52,2.28-2.3.24-.25.49-.34.84-.34,3.5.01,6.99,0,10.49,0,.15,0,.35.05.45-.02.18-.14.43-.35.43-.53,0-.18-.26-.38-.44-.52-.1-.07-.3-.02-.45-.02-3.13,0-6.26,0-9.4,0-.17,0-.33,0-.57,0ZM102.57,60.66c-.03-.58-.07-1.15-.1-1.73-.05-.96-.08-1-1.03-1.05-2.66-.16-5.09-.95-7.22-2.58-.33-.25-.61-.22-.95,0-.67.45-1.34.9-2.05,1.26-1.69.86-3.51,1.24-5.4,1.33-.6.03-.74.18-.78.73-.15,2.08-.14,4.16.16,6.23.75,5.17,3.49,8.87,8.17,11.15.19.09.5.12.68.03,3.2-1.56,5.72-3.82,7.13-7.17,1.1-2.63,1.4-5.39,1.38-8.21ZM99.49,83.3c-.99,0-1.98,0-2.96,0-.45,0-.7.2-.68.55.03.4.3.54.66.54,1.98,0,3.95,0,5.93,0,.45,0,.7-.21.68-.56-.03-.44-.32-.53-.7-.53-.97,0-1.95,0-2.92,0Z"/>
  <path class="cls-2" d="M108.68,59.74c1.15.15,2.22.29,3.29.43.56.07,1.11.15,1.67.23,1.27.17,2.09,1.12,1.96,2.41-.15,1.53-.38,3.04-.59,4.56-.44,3.31-.88,6.63-1.33,9.94-.47,3.54-.94,7.08-1.41,10.62-.26,1.94-.53,3.88-.77,5.83-.19,1.54-1.14,2.35-2.68,2.15-3.34-.43-6.69-.88-10.03-1.33-2.62-.35-5.24-.7-7.86-1.05-.27-.04-.53-.08-.8-.18.41,0,.81,0,1.22,0,2.68,0,5.35,0,8.03,0,.81,0,.9-.09.91-.93,0-.42,0-.84,0-1.32.21,0,.37,0,.54,0,1.43,0,2.86-.04,4.29,0,2.23.07,3.61-1.66,3.6-3.58-.04-9.05-.02-18.09-.02-27.14,0-.19,0-.39,0-.65Z"/>
  <path class="cls-2" d="M83.2,92.23v-2.42h15.95v2.42h-15.95Z"/>
  <path class="cls-2" d="M81.56,76.62c.82-.82,1.68-1.69,2.51-2.53,1.59,1.59,3.19,3.19,4.76,4.76-.82.81-1.69,1.69-2.52,2.51-1.54-1.54-3.15-3.15-4.75-4.75Z"/>
  <path class="cls-2" d="M96.86,88.67h-11.37c.02-.42,0-.85.07-1.25.1-.5.49-.73,1.11-.73,1.95,0,3.89,0,5.84,0,1.03,0,2.07,0,3.1,0,.86,0,1.23.36,1.24,1.21,0,.24,0,.48,0,.78Z"/>
  <path class="cls-2" d="M82.45,79.33c.39.41.77.8,1.17,1.21-.03.04-.11.13-.19.21-2.17,2.17-4.33,4.34-6.51,6.5-.16.16-.35.3-.55.38-.33.12-.63.04-.84-.27-.22-.32-.4-.66-.09-1.04.07-.08.14-.16.22-.23,2.19-2.19,4.38-4.38,6.57-6.57.07-.07.15-.14.22-.2Z"/>
  <path class="cls-2" d="M79.75,76.54c-.22-.19-.46-.33-.59-.55-.17-.29-.06-.58.18-.82.69-.69,1.37-1.37,2.06-2.06.4-.4.79-.8,1.19-1.19.37-.35.78-.36,1.08-.04.27.29.26.72-.07,1.05-1.07,1.08-2.14,2.15-3.22,3.22-.15.15-.37.23-.63.39Z"/>
  <path class="cls-2" d="M87.23,83.97c-.22-.18-.53-.31-.59-.51-.08-.23-.02-.58.12-.78.26-.37.62-.66.95-.98.76-.76,1.52-1.53,2.28-2.28.38-.38.81-.42,1.12-.12.32.31.3.73-.09,1.12-1.05,1.06-2.1,2.11-3.15,3.15-.15.15-.37.24-.62.4Z"/>
  <path class="cls-2" d="M81.65,78.44c-.59.6-1.14,1.16-1.73,1.76,0-.83,0-1.64,0-2.45,0-.08.12-.22.2-.23.19-.03.45-.08.57.01.35.28.65.62.95.91Z"/>
  <path class="cls-2" d="M88.35,61.14c1.19-.31,2.26-.53,3.28-.88.65-.22,1.24-.64,1.86-.94.13-.06.36-.1.47-.03,1.51.99,3.16,1.54,4.95,1.68.04,0,.08.03.17.05,0,.97.07,1.96-.02,2.93-.1.98-.28,1.96-.57,2.9-.72,2.38-2.33,4.04-4.51,5.18-.13.07-.38.04-.52-.04-2.99-1.56-4.58-4.08-4.94-7.39-.13-1.17-.12-2.36-.17-3.47ZM92.98,66.62c-.51-.52-.98-1.01-1.46-1.5-.33-.34-.68-.38-.91-.11-.27.32-.15.61.12.88.58.58,1.16,1.16,1.74,1.74.4.39.64.39,1.04-.01.82-.81,1.63-1.63,2.45-2.45.3-.3.61-.59.9-.91.23-.25.23-.53-.02-.77-.23-.22-.49-.21-.74,0-.1.09-.2.19-.29.29-.92.92-1.85,1.85-2.84,2.84Z"/>
</svg>