<?xml version="1.0" encoding="UTF-8"?>
<svg id="Layer_1" xmlns="http://www.w3.org/2000/svg" viewBox="0 0 200.23 150.11">
  <defs>
    <style>
      .cls-1 {
        fill: none;
        stroke: #0d2a47;
        stroke-miterlimit: 10;
      }

      .cls-2 {
        fill: #0d2a47;
      }
    </style>
  </defs>
  <path class="cls-1" d="M100.73,56.57c.12.04.23.08.35.11,1.38.38,2.33,1.62,2.37,3.06.03,1.4-.92,2.7-2.28,3.12-.13.04-.25.08-.37.12,5.07.48,8.75,2.93,10.92,7.56.69,1.48,1.03,3.06,1.05,4.7.02,1.7,0,3.4,0,5.1,0,.1-.01.19-.02.38-.29-.05-.58-.06-.84-.14-.61-.18-1.21-.4-1.81-.59-.73-.23-1.26-.03-1.65.64-.79,1.36-1.58,2.72-2.36,4.09-.38.67-.29,1.22.28,1.74.45.41.91.81,1.36,1.22.86.78.87,1.77.02,2.55-.46.42-.87.97-1.42,1.19-.53.21-1.2.07-1.8.07-6.26,0-12.52,0-18.79,0h-.48s-.07-.06-.07-.09c0-1.3-.02-2.6,0-3.89,0-.24.16-.5.3-.71.63-.96,1.3-1.89,1.92-2.86.15-.23.25-.53.25-.8.02-2.5-.03-5.01.03-7.51.12-5.38,2.66-9.23,7.48-11.56,1.4-.68,2.92-.99,4.57-1.06-.32-.11-.55-.17-.77-.27-1.27-.54-2.07-1.86-1.96-3.18.13-1.43,1.08-2.56,2.45-2.91.09-.02.18-.06.27-.09.33,0,.66,0,1,0Z"/>
  <path class="cls-2" d="M127.61,92.82c-.42.71-.86,1.41-1.26,2.12-.14.25-.27.32-.55.21-.95-.37-1.93-.6-2.95-.3-1.65.47-2.65,1.57-3.02,3.24-.07.3-.12.59-.19.92h-2.92c-.09-.4-.18-.81-.28-1.22-.6-2.28-2.92-3.57-5.17-2.88-.35.11-.77.37-1.05.26-.28-.11-.41-.58-.6-.9-.29-.5-.58-1-.88-1.53.26-.24.52-.47.77-.7,1.86-1.69,1.86-4.46,0-6.16-.24-.22-.49-.44-.78-.7.46-.8.92-1.6,1.39-2.39.04-.07.24-.08.35-.05.4.1.79.27,1.19.35,2.29.44,4.34-.93,4.84-3.21.07-.32.14-.65.21-.99h2.92c.09.4.17.8.27,1.2.58,2.25,2.84,3.55,5.08,2.92.05-.01.11-.03.16-.05.33-.1.74-.36.97-.25.28.13.42.58.61.89.3.49.6.98.9,1.48v.08c-.35.32-.71.62-1.03.95-1.43,1.47-1.53,3.82-.21,5.39.37.44.83.81,1.24,1.21v.08ZM122.64,88.97c0-2.48-2-4.49-4.47-4.5-2.45,0-4.49,2.02-4.49,4.48,0,2.46,2.01,4.49,4.48,4.5,2.46,0,4.48-2.01,4.49-4.48Z"/>
  <path class="cls-2" d="M95.21,94.01h10.04c-.06,1.86-.83,3.31-2.38,4.26-1.79,1.1-3.63,1.07-5.39-.07-1.49-.96-2.22-2.39-2.27-4.19Z"/>
  <path class="cls-2" d="M107.82,59.82c.23.08.48.13.69.25,2.72,1.47,4.91,3.51,6.56,6.12.42.66.29,1.4-.3,1.79-.61.4-1.36.23-1.79-.44-1.44-2.26-3.34-4.02-5.7-5.3-.59-.32-.83-.85-.67-1.45.14-.54.62-.91,1.21-.96Z"/>
  <path class="cls-2" d="M92.66,59.82c.57.05,1.05.42,1.19.93.16.58-.08,1.11-.6,1.45-.88.57-1.78,1.12-2.6,1.76-1.26.98-2.28,2.2-3.14,3.55-.35.55-.86.77-1.4.64-.85-.21-1.21-1.15-.71-1.94,1.02-1.63,2.26-3.08,3.78-4.26.89-.69,1.86-1.28,2.81-1.89.2-.13.46-.17.69-.25Z"/>
  <path class="cls-2" d="M118.15,90.93c-1.09,0-1.98-.89-1.97-1.97,0-1.09.89-1.96,1.99-1.96,1.09,0,1.97.88,1.97,1.97,0,1.09-.89,1.96-1.98,1.96Z"/>
</svg>