<?xml version="1.0" encoding="UTF-8"?>
<svg id="Layer_1" xmlns="http://www.w3.org/2000/svg" viewBox="0 0 200.23 150.11">
  <defs>
    <style>
      .cls-1 {
        fill: #00cb75;
      }
    </style>
  </defs>
  <path class="cls-1" d="M88.06,86.6h23.11v-.53c0-9.49,0-18.98,0-28.47,0-2.92-1.97-4.9-4.89-4.9-4.45,0-8.89,0-13.34,0-2.89,0-4.86,1.98-4.87,4.87,0,.67.01,1.35,0,2.02-.01.44-.32.72-.74.73-.41.01-.79-.26-.78-.69.03-1.28-.05-2.59.21-3.83.55-2.66,3.07-4.63,5.79-4.64,4.72-.02,9.44-.03,14.16,0,3.27.02,5.96,2.76,6.01,6.06.03,1.7,0,3.4,0,5.11,0,8.57,0,17.15,0,25.72,0,2.99-1.95,5.45-4.83,6.1-.46.11-.95.15-1.43.15-4.56.01-9.12.01-13.68,0-3.53,0-6.24-2.73-6.25-6.27,0-1.57,0-3.15,0-4.72,0-.08,0-.16,0-.24.03-.49.34-.81.78-.81.44,0,.75.32.76.82.01.98,0,1.96,0,2.94,0,.17,0,.35,0,.56ZM88.08,88.18c-.02,2.47,2.02,4.58,4.49,4.59,4.68.03,9.37.02,14.05,0,1.39,0,2.55-.59,3.45-1.65.71-.84,1.08-1.82,1.08-2.95h-23.07Z"/>
  <path class="cls-1" d="M83.63,71.5c-.92-3.66-1.81-7.25-2.7-10.85-.07-.27-.21-.31-.45-.31-.69.01-1.38,0-2.07,0-.55,0-.87-.27-.89-.73-.02-.48.31-.8.87-.81.98-.01,1.96,0,2.94,0,.48,0,.78.23.89.71.16.67.36,1.33.49,2.01.07.39.25.47.61.47,4.89-.01,9.79-.02,14.68,0,.52,0,1.09.15,1.55.41.89.5,1.28,1.6.96,2.6-.7,2.18-1.42,4.36-2.17,6.52-.34.97-1.22,1.52-2.34,1.52-4.19,0-8.38,0-12.57,0-.14,0-.29,0-.43,0-.45.03-.76.35-.78.76-.02.43.29.8.74.85.16.02.32,0,.48,0,4.48,0,8.96,0,13.43,0,.16,0,.32-.01.48,0,.43.05.67.31.7.73.02.4-.21.66-.59.77-.12.03-.25.03-.38.03-4.65,0-9.31,0-13.96,0-.94,0-1.68-.39-2.14-1.22-.44-.79-.42-1.61.06-2.38.49-.79,1.23-1.14,2.16-1.11.13,0,.25,0,.43,0ZM83.27,63.52c0,.1,0,.15,0,.19.62,2.49,1.26,4.97,1.86,7.46.08.34.27.33.52.33,3.42,0,6.83,0,10.25,0,.7,0,.89-.14,1.11-.82.64-1.91,1.28-3.83,1.92-5.74.33-1,.02-1.42-1.04-1.42-4.7,0-9.4,0-14.1,0-.17,0-.34,0-.52,0Z"/>
  <path class="cls-1" d="M83.09,76.43c1.38,0,2.53,1.18,2.51,2.57-.02,1.37-1.16,2.5-2.53,2.5-1.4,0-2.54-1.15-2.53-2.54,0-1.39,1.15-2.53,2.55-2.53ZM83.06,77.97c-.53,0-.98.45-.98.98,0,.53.44.99.96,1,.55.01,1.01-.46,1.01-1.01,0-.54-.46-.98-.99-.98Z"/>
  <path class="cls-1" d="M97.93,78.95c.02,1.36-1.11,2.52-2.48,2.54-1.39.03-2.56-1.11-2.57-2.5-.01-1.4,1.1-2.54,2.51-2.57,1.38-.03,2.54,1.12,2.55,2.52ZM95.39,79.95c.53,0,.98-.44.99-.98.01-.55-.45-1.02-1-1.01-.53.01-.97.47-.97,1,0,.53.45.99.98.99Z"/>
  <path class="cls-1" d="M77.35,68.9c1.19,0,2.38,0,3.56,0,.61,0,.96.28.97.76,0,.48-.35.78-.95.78-2.41,0-4.81,0-7.22,0-.59,0-.96-.31-.95-.78,0-.47.37-.76.98-.76,1.2,0,2.41,0,3.61,0Z"/>
  <path class="cls-1" d="M76.24,65.81c.82,0,1.64,0,2.46,0,.61,0,.96.28.97.76,0,.48-.35.78-.95.78-1.67,0-3.34,0-5.01,0-.59,0-.96-.31-.95-.78,0-.47.37-.76.98-.76.83,0,1.67,0,2.5,0Z"/>
  <path class="cls-1" d="M75.38,64.27c-.59,0-1.18,0-1.78,0-.51,0-.86-.34-.85-.79.01-.43.35-.74.84-.75,1.22,0,2.43,0,3.65,0,.51,0,.86.34.84.79-.01.43-.34.74-.83.75-.62.01-1.25,0-1.87,0Z"/>
  <path class="cls-1" d="M99.58,91.08c-.61,0-1.22,0-1.83,0-.5-.01-.82-.31-.84-.74-.01-.43.31-.78.8-.79,1.27-.02,2.53-.02,3.8,0,.48,0,.8.37.79.8-.02.42-.33.72-.8.73-.64.02-1.28,0-1.93,0,0,0,0,0,0,0Z"/>
</svg>