<?xml version="1.0" encoding="UTF-8"?>
<svg id="Layer_1" xmlns="http://www.w3.org/2000/svg" viewBox="0 0 200.23 150.11">
  <defs>
    <style>
      .cls-1 {
        fill: none;
        stroke: #0d2a47;
        stroke-miterlimit: 10;
        stroke-width: 2px;
      }
    </style>
  </defs>
  <path class="cls-1" d="M121.16,78.19v22.32h-22.32c-.09-.02-.18-.06-.28-.07-3.67-.28-7.07-1.41-10.11-3.48-5.88-4-9.19-9.54-9.58-16.68-.28-5.17,1.25-9.84,4.43-13.94,5.67-7.3,15.4-10.16,23.98-6.82,7.48,2.91,11.97,8.48,13.55,16.37.15.75.22,1.52.32,2.28ZM101.97,83.52c.01-.11.02-.18.03-.25.03-1.4.59-2.54,1.66-3.46.63-.53,1.22-1.11,1.8-1.7,1.11-1.13,1.82-2.45,1.83-4.07.03-2.46-.92-4.35-3.21-5.44-.88-.42-1.82-.62-2.79-.7-1.69-.14-3.36-.06-4.95.62-2.33.99-3.87,3.52-3.58,5.85h5.17c.02-.19.05-.36.07-.54.08-.55.29-1.03.68-1.43,1.04-1.03,2.89-.57,3.25.83.27,1.05.14,2.04-.6,2.87-.55.61-1.15,1.19-1.77,1.73-1.72,1.53-2.03,3.53-2,5.69h4.39ZM99.9,90.85c.07,0,.21,0,.35-.02,1.34-.12,2.36-1.12,2.46-2.41.1-1.24-.7-2.34-1.99-2.67-.37-.09-.76-.13-1.14-.11-1.85.1-3.02,1.65-2.55,3.34.31,1.12,1.44,1.87,2.88,1.86Z"/>
</svg>