<?xml version="1.0" encoding="UTF-8"?>
<svg id="Layer_1" xmlns="http://www.w3.org/2000/svg" viewBox="0 0 200.23 150.11">
  <defs>
    <style>
      .cls-1 {
        fill: #00cb75;
      }
    </style>
  </defs>
  <path class="cls-1" d="M99.67,46.91c.29,0,.59,0,.88,0,.4.28.83.53,1.2.84,4.83,4.03,9.14,8.55,12.81,13.66,2.89,4.02,5.26,8.31,6.58,13.12,1.43,5.2,1.32,10.32-.85,15.31-5.18,11.93-19.18,16.88-30.6,10.66-7.34-4-11.15-10.4-11.55-18.76-.16-3.41.58-6.69,1.77-9.87,1.91-5.1,4.84-9.58,8.28-13.76.81-.99,2.17-.87,2.88.23.47.73,1.04,1.32,1.84,1.66,2.54,1.08,5.38-.74,5.42-3.51.03-2.42.04-4.83,0-7.25-.02-1.09.31-1.88,1.34-2.32ZM93.9,90.86c.71-.01,1.19-.33,1.58-.84,1.09-1.42,2.2-2.83,3.3-4.25,2.91-3.74,5.82-7.49,8.73-11.22.38-.49.6-1,.46-1.63-.17-.73-.63-1.2-1.36-1.35-.78-.16-1.38.16-1.86.78-2.57,3.31-5.14,6.62-7.72,9.93-1.48,1.91-2.97,3.81-4.45,5.72-.46.59-.53,1.24-.19,1.91.32.63.86.92,1.5.96ZM93.94,71.53c-1.94,0-3.51,1.6-3.5,3.54.01,1.91,1.59,3.48,3.5,3.48,1.94,0,3.53-1.58,3.52-3.52,0-1.94-1.59-3.52-3.53-3.51ZM106.27,83.84c-1.94,0-3.52,1.59-3.52,3.53,0,1.92,1.57,3.49,3.48,3.5,1.94.01,3.54-1.56,3.54-3.5,0-1.94-1.57-3.53-3.51-3.53Z"/>
</svg>