<?xml version="1.0" encoding="UTF-8"?>
<svg id="Layer_1" xmlns="http://www.w3.org/2000/svg" viewBox="0 0 200.23 150.11">
  <defs>
    <style>
      .cls-1, .cls-2 {
        fill: none;
        stroke: #0d2a47;
        stroke-miterlimit: 10;
      }

      .cls-2 {
        stroke-width: 2px;
      }

      .cls-3 {
        fill: #0d2a47;
      }
    </style>
  </defs>
  <path class="cls-1" d="M107.33,96.24c-.6-.27-1.25-.45-1.78-.82-.92-.64-1.42-1.6-1.43-2.72-.03-3.93-.01-7.86-.01-11.79,0-.04.02-.08.04-.15.9,0,1.81,0,2.72,0,2.61-.03,4.94-1.65,5.78-4.11.24-.69.32-1.45.37-2.18.06-.86.01-1.73.01-2.63.51,0,.97-.02,1.44,0,.27.01.41-.08.54-.32,1.41-2.55,3.58-4.05,6.42-4.6.94-.18,1.59.37,1.6,1.33,0,1.17,0,2.34,0,3.58.45,0,.88-.02,1.32,0,.53.04,1.09.04,1.59.2,1.32.43,2.13,1.36,2.48,2.71.03.11.06.21.09.31v17.95c-.03.1-.06.21-.09.31-.26,1.07-.86,1.91-1.83,2.43-.41.22-.87.33-1.31.48h-17.95ZM122.53,88.9c-.03-.11-.07-.32-.16-.5-1.64-3.29-3.28-6.57-4.93-9.86-.24-.48-.63-.74-1.15-.73-.51,0-.88.27-1.11.73-1.64,3.29-3.29,6.57-4.93,9.86-.33.66-.1,1.39.51,1.7.64.33,1.34.09,1.7-.59.25-.47.49-.95.72-1.44.1-.21.21-.31.46-.31,1.78.01,3.55.01,5.33,0,.25,0,.36.1.46.31.25.52.5,1.04.78,1.55.29.52.85.73,1.41.58.53-.15.91-.65.9-1.3Z"/>
  <path class="cls-3" d="M97.16,96.24c-.96-.44-1.29-1.14-.87-1.87.13-.22.32-.4.49-.62-.65-.11-1.28-.19-1.91-.32-4.59-.98-8.2-5.04-8.64-9.71-.04-.37-.06-.74-.07-1.11,0-.76.52-1.33,1.23-1.33.7,0,1.23.55,1.25,1.31.1,3.19,1.5,5.65,4.18,7.36,1.18.75,2.48,1.16,3.98,1.26-.15-.17-.25-.27-.35-.38-.44-.52-.42-1.26.04-1.72.46-.45,1.21-.49,1.69-.03.88.84,1.73,1.7,2.57,2.57.46.48.46,1.2,0,1.69-.83.86-1.68,1.71-2.54,2.54-.17.16-.42.25-.63.37h-.41Z"/>
  <path class="cls-3" d="M128.51,67.78c-.18.44-.41.84-.91.98-.8.23-1.56-.33-1.58-1.21-.05-1.68-.45-3.24-1.38-4.65-1.53-2.34-3.69-3.68-6.48-4-.07,0-.15,0-.29,0,.14.15.24.26.34.37.43.51.41,1.23-.03,1.69-.45.46-1.2.53-1.68.07-.9-.85-1.78-1.73-2.63-2.63-.44-.46-.43-1.15.02-1.62.84-.87,1.7-1.73,2.57-2.57.5-.48,1.24-.45,1.71.03.46.46.47,1.21.03,1.72-.11.12-.22.24-.32.35.8.15,1.6.26,2.36.46,4.51,1.19,7.84,5.2,8.21,9.86,0,.11.05.21.07.32v.83Z"/>
  <path class="cls-2" d="M91.63,78.28c-.54,0-1.03,0-1.52,0-2.36,0-3.95-1.58-3.95-3.93,0-5.51,0-11.03,0-16.54,0-2.36,1.58-3.93,3.95-3.93,5.5,0,11,0,16.5,0,2.38,0,3.95,1.58,3.95,3.97,0,5.49,0,10.97,0,16.46,0,2.41-1.58,3.97-3.99,3.97-2.12,0-4.24,0-6.37,0-.27,0-.41.08-.54.32-1.42,2.56-3.6,4.07-6.46,4.61-.88.17-1.55-.39-1.56-1.3-.01-1.05,0-2.1,0-3.14,0-.15,0-.29,0-.48ZM96.44,69.01c-1.01.51-2.03.74-3.1.82-.73.06-1.26.63-1.21,1.31.06.7.63,1.2,1.36,1.16,1.62-.09,3.15-.51,4.55-1.35.23-.14.39-.15.62,0,1.4.84,2.93,1.25,4.55,1.35.74.04,1.34-.48,1.37-1.19.03-.66-.48-1.21-1.2-1.28-.23-.02-.47-.03-.7-.07-.83-.13-1.63-.34-2.41-.76,1.06-1.39,1.56-2.96,1.76-4.68.4,0,.77,0,1.14,0,.18,0,.36,0,.53-.06.56-.16.94-.75.86-1.3-.09-.65-.58-1.1-1.28-1.11-1.07-.02-2.15,0-3.23,0-.15,0-.29-.01-.47-.02,0-.26,0-.48,0-.7-.03-.73-.53-1.25-1.21-1.27-.68-.02-1.22.52-1.26,1.26-.01.23,0,.46,0,.71-.14,0-.22.02-.3.02-1.13,0-2.26-.01-3.39,0-.76.01-1.32.58-1.3,1.27.02.69.56,1.19,1.32,1.2.4,0,.8,0,1.23,0,.19,1.71.69,3.28,1.76,4.69Z"/>
  <path class="cls-3" d="M116.31,81.83c.59,1.19,1.14,2.29,1.72,3.44h-3.43c.57-1.15,1.13-2.26,1.72-3.44Z"/>
  <path class="cls-3" d="M97.19,64.34h2.32c-.12,1.13-.47,2.13-1.15,3.07-.7-.92-1.02-1.93-1.17-3.07Z"/>
</svg>